<svg width="20" height="17" viewBox="0 0 20 17" fill="none" xmlns="http://www.w3.org/2000/svg">
              <path
                d="M12 9.50018H11V8.50018C11 8.23497 10.8946 7.98061 10.7071 7.79308C10.5196 7.60554 10.2652 7.50018 10 7.50018C9.73478 7.50018 9.48043 7.60554 9.29289 7.79308C9.10536 7.98061 9 8.23497 9 8.50018V9.50018H8C7.73478 9.50018 7.48043 9.60554 7.29289 9.79308C7.10536 9.98061 7 10.235 7 10.5002C7 10.7654 7.10536 11.0198 7.29289 11.2073C7.48043 11.3948 7.73478 11.5002 8 11.5002H9V12.5002C9 12.7654 9.10536 13.0198 9.29289 13.2073C9.48043 13.3948 9.73478 13.5002 10 13.5002C10.2652 13.5002 10.5196 13.3948 10.7071 13.2073C10.8946 13.0198 11 12.7654 11 12.5002V11.5002H12C12.2652 11.5002 12.5196 11.3948 12.7071 11.2073C12.8946 11.0198 13 10.7654 13 10.5002C13 10.235 12.8946 9.98061 12.7071 9.79308C12.5196 9.60554 12.2652 9.50018 12 9.50018Z"
                fill="#C5C5C5"
              />
              <path
                d="M17.5 3.55019H10.5L7.87 0.370186C7.77695 0.255473 7.65964 0.162799 7.5265 0.0988242C7.39336 0.0348494 7.24771 0.00116314 7.1 0.000186355H2.5C1.84661 -0.00783506 1.21666 0.243381 0.748098 0.698826C0.279533 1.15427 0.0105328 1.77683 0 2.43019V14.5702C0.0105328 15.2235 0.279533 15.8461 0.748098 16.3015C1.21666 16.757 1.84661 17.0082 2.5 17.0002H17.5C18.1534 17.0082 18.7833 16.757 19.2519 16.3015C19.7205 15.8461 19.9895 15.2235 20 14.5702V5.98019C19.9895 5.32683 19.7205 4.70427 19.2519 4.24883C18.7833 3.79338 18.1534 3.54217 17.5 3.55019ZM18 14.5502C17.9962 14.6115 17.9802 14.6715 17.9529 14.7266C17.9255 14.7817 17.8874 14.8307 17.8408 14.8708C17.7942 14.9109 17.74 14.9412 17.6815 14.96C17.6229 14.9788 17.5612 14.9856 17.5 14.9802H2.5C2.43876 14.9856 2.37706 14.9788 2.31852 14.96C2.25998 14.9412 2.20581 14.9109 2.1592 14.8708C2.11259 14.8307 2.07448 14.7817 2.04714 14.7266C2.0198 14.6715 2.00377 14.6115 2 14.5502V2.43019C2.00377 2.36882 2.0198 2.30884 2.04714 2.25378C2.07448 2.19871 2.11259 2.14969 2.1592 2.1096C2.20581 2.06952 2.25998 2.03918 2.31852 2.02039C2.37706 2.00159 2.43876 1.99473 2.5 2.00019H6.63L9.23 5.18019C9.32305 5.2949 9.44036 5.38757 9.5735 5.45155C9.70664 5.51552 9.85229 5.54921 10 5.55019H17.5C17.5612 5.54473 17.6229 5.55159 17.6815 5.57039C17.74 5.58918 17.7942 5.61952 17.8408 5.6596C17.8874 5.69969 17.9255 5.74871 17.9529 5.80378C17.9802 5.85884 17.9962 5.91882 18 5.98019V14.5502Z"
                fill="#C5C5C5"
              />
            </svg>