<svg width="20" height="20" viewBox="0 0 20 20" fill="none" xmlns="http://www.w3.org/2000/svg">
              <path
                d="M11.1111 9.55556L13.8889 12.3333C14.0926 12.537 14.1944 12.7963 14.1944 13.1111C14.1944 13.4259 14.0926 13.6852 13.8889 13.8889C13.6852 14.0926 13.4259 14.1944 13.1111 14.1944C12.7963 14.1944 12.537 14.0926 12.3333 13.8889L9.22223 10.7778C9.11111 10.6667 9.02778 10.5419 8.97223 10.4033C8.91667 10.2648 8.88889 10.1211 8.88889 9.97222V5.55556C8.88889 5.24074 8.99556 4.97667 9.20889 4.76333C9.42222 4.55 9.68593 4.4437 10 4.44444C10.3148 4.44444 10.5789 4.55111 10.7922 4.76444C11.0056 4.97778 11.1119 5.24148 11.1111 5.55556V9.55556ZM10 20C7.75926 20 5.75 19.3378 3.97223 18.0133C2.19445 16.6889 1 14.9622 0.388893 12.8333C0.2963 12.5 0.328893 12.1852 0.48667 11.8889C0.644448 11.5926 0.889633 11.4074 1.22223 11.3333C1.53704 11.2593 1.81963 11.3289 2.07 11.5422C2.32037 11.7556 2.49148 12.0193 2.58334 12.3333C3.06482 13.963 3.99556 15.2778 5.37556 16.2778C6.75556 17.2778 8.29704 17.7778 10 17.7778C12.1667 17.7778 14.0048 17.023 15.5144 15.5133C17.0241 14.0037 17.7785 12.1659 17.7778 10C17.7778 7.83333 17.023 5.99518 15.5133 4.48556C14.0037 2.97593 12.1659 2.22148 10 2.22222C8.72223 2.22222 7.52778 2.51852 6.41667 3.11111C5.30556 3.7037 4.37037 4.51852 3.61111 5.55556H5.55556C5.87037 5.55556 6.13445 5.66222 6.34778 5.87556C6.56111 6.08889 6.66741 6.35259 6.66667 6.66667C6.66667 6.98148 6.56 7.24556 6.34667 7.45889C6.13334 7.67222 5.86963 7.77852 5.55556 7.77778H1.11111C0.7963 7.77778 0.532226 7.67111 0.318893 7.45778C0.105559 7.24444 -0.000736896 6.98074 3.84468e-06 6.66667V2.22222C3.84468e-06 1.90741 0.106671 1.64333 0.320004 1.43C0.533337 1.21667 0.797041 1.11037 1.11111 1.11111C1.42593 1.11111 1.69 1.21778 1.90334 1.43111C2.11667 1.64444 2.22297 1.90815 2.22223 2.22222V3.72222C3.16667 2.53704 4.31963 1.62037 5.68111 0.972222C7.04259 0.324074 8.48223 0 10 0C11.3889 0 12.69 0.264074 13.9033 0.792222C15.1167 1.32037 16.1722 2.03296 17.07 2.93C17.9678 3.82852 18.6807 4.88407 19.2089 6.09667C19.737 7.30926 20.0007 8.61037 20 10C20 11.3889 19.7359 12.69 19.2078 13.9033C18.6796 15.1167 17.967 16.1722 17.07 17.07C16.1715 17.9678 15.1159 18.6807 13.9033 19.2089C12.6907 19.737 11.3896 20.0007 10 20Z"
                fill="#C5C5C5"
              />
            </svg>