<svg width="20" height="16" viewBox="0 0 20 16" fill="none" xmlns="http://www.w3.org/2000/svg">
              <path
                d="M10.2 10L9.275 10.925C9.09167 11.1083 9 11.3417 9 11.625C9 11.9083 9.09167 12.1417 9.275 12.325C9.45833 12.5083 9.69167 12.6 9.975 12.6C10.2583 12.6 10.4917 12.5083 10.675 12.325L13.3 9.7C13.5 9.5 13.6 9.26667 13.6 9C13.6 8.73334 13.5 8.5 13.3 8.3L10.675 5.675C10.4917 5.49167 10.2583 5.4 9.975 5.4C9.69167 5.4 9.45833 5.49167 9.275 5.675C9.09167 5.85834 9 6.09167 9 6.375C9 6.65834 9.09167 6.89167 9.275 7.075L10.2 8H7C6.71667 8 6.479 8.096 6.287 8.288C6.095 8.48 5.99934 8.71734 6 9C6 9.28334 6.096 9.521 6.288 9.713C6.48 9.905 6.71734 10.0007 7 10H10.2ZM2 16C1.45 16 0.979002 15.804 0.587002 15.412C0.195002 15.02 -0.000664969 14.5493 1.69779e-06 14V2C1.69779e-06 1.45 0.196002 0.979002 0.588002 0.587002C0.980002 0.195002 1.45067 -0.000664969 2 1.69779e-06H7.175C7.44167 1.69779e-06 7.696 0.0500018 7.938 0.150002C8.18 0.250002 8.39233 0.391668 8.575 0.575001L10 2H18C18.55 2 19.021 2.196 19.413 2.588C19.805 2.98 20.0007 3.45067 20 4V14C20 14.55 19.804 15.021 19.412 15.413C19.02 15.805 18.5493 16.0007 18 16H2ZM2 2V14H18V4H9.175L7.175 2H2Z"
                fill="#017BFF"
              />
            </svg>