 <svg width="22" height="19" viewBox="0 0 22 19" fill="none" xmlns="http://www.w3.org/2000/svg">
              <path
                d="M7 14H19C19.5304 14 20.0391 13.7893 20.4142 13.4142C20.7893 13.0391 21 12.5304 21 12V6C21 5.46957 20.7893 4.96086 20.4142 4.58579C20.0391 4.21071 19.5304 4 19 4H15.07C14.7406 3.9983 14.4167 3.91525 14.1271 3.75824C13.8375 3.60123 13.5912 3.37512 13.41 3.1L12.59 1.9C12.4088 1.62488 12.1625 1.39877 11.8729 1.24176C11.5833 1.08475 11.2594 1.0017 10.93 1H7C6.46957 1 5.96086 1.21071 5.58579 1.58579C5.21071 1.96086 5 2.46957 5 3V12C5 13.1 5.9 14 7 14Z"
                stroke="#C5C5C5"
                stroke-width="2"
                stroke-linecap="round"
                stroke-linejoin="round"
              />
              <path
                d="M1 5V16C1 17.1 1.9 18 3 18H17"
                stroke="#C5C5C5"
                stroke-width="2"
                stroke-linecap="round"
                stroke-linejoin="round"
              />
            </svg>