<svg width="20" height="22" viewBox="0 0 20 22" fill="none" xmlns="http://www.w3.org/2000/svg">
              <path
                d="M6.8125 16.5521C6.59028 16.5521 6.42361 16.4514 6.3125 16.25C6.27083 16.1736 6.19792 16.0417 6.09375 15.8542C5.98958 15.6667 5.88194 15.4722 5.77083 15.2708C5.65972 15.0694 5.55903 14.8785 5.46875 14.6979C5.37847 14.5174 5.33333 14.3958 5.33333 14.3333C5.33333 14.2222 5.35764 14.1042 5.40625 13.9792C5.45486 13.8542 5.51736 13.7292 5.59375 13.6042C5.67014 13.4792 5.74306 13.3611 5.8125 13.25C5.88194 13.1389 5.94444 13.0417 6 12.9583L5.33333 12.4271H7.38542L7.875 14.4479L7.07292 13.8125L6.5 14.9688H8.40625V16.5521H6.8125ZM9.21875 9.84375L8.34375 11.5625L7.02083 10.8958L7.64583 9.65625C7.74306 9.44792 7.90972 9.34375 8.14583 9.34375L10.4479 9.33333C10.6701 9.33333 10.8368 9.4375 10.9479 9.64583L11.5104 10.6979L12.1146 10.2396L11.8021 12.3958L9.53125 12.1875L10.1771 11.7083L9.21875 9.84375ZM10.4896 17.3333L9.19792 15.6042L10.4896 14.0208V15.0938H12.1875L11.4896 13.8125L12.7604 13.0625C12.7882 13.125 12.8333 13.2118 12.8958 13.3229C12.9583 13.434 13.0243 13.5556 13.0938 13.6875C13.1632 13.8194 13.2188 13.941 13.2604 14.0521C13.3021 14.1632 13.3264 14.2569 13.3333 14.3333C13.3333 14.4167 13.3125 14.5 13.2708 14.5833L12.3854 16.3333C12.3368 16.4306 12.2674 16.5035 12.1771 16.5521C12.0868 16.6007 11.9896 16.6285 11.8854 16.6354H10.4896V17.3333ZM16.7292 6.66667H18.1042L15.2812 19.2812C14.3785 19.9549 13.4479 20.4653 12.4896 20.8125C11.5312 21.1597 10.4826 21.3333 9.34375 21.3333C8.21875 21.3333 7.17361 21.1597 6.20833 20.8125C5.24306 20.4653 4.3125 19.9549 3.41667 19.2812L0.09375 4.59375L0.03125 4.30208C0.0104167 4.20486 0 4.10417 0 4C0 3.59722 0.100694 3.23264 0.302083 2.90625C0.503472 2.57986 0.774306 2.28472 1.11458 2.02083C1.45486 1.75694 1.83333 1.53125 2.25 1.34375C2.66667 1.15625 3.09375 0.986111 3.53125 0.833333C3.96875 0.680556 4.38889 0.565972 4.79167 0.489583C5.19444 0.413194 5.55208 0.34375 5.86458 0.28125C7.01042 0.09375 8.16667 0 9.33333 0C9.6875 0 10.0382 0.00694444 10.3854 0.0208333C10.7326 0.0347222 11.0868 0.0625 11.4479 0.104167C10.9896 0.243056 10.5486 0.413194 10.125 0.614583C9.70139 0.815972 9.29167 1.05903 8.89583 1.34375C8.5625 1.35069 8.19444 1.36806 7.79167 1.39583C7.38889 1.42361 6.97222 1.46528 6.54167 1.52083C6.11111 1.57639 5.67361 1.64931 5.22917 1.73958C4.78472 1.82986 4.35764 1.94097 3.94792 2.07292C3.53819 2.20486 3.15278 2.35764 2.79167 2.53125C2.43056 2.70486 2.11806 2.90625 1.85417 3.13542C1.72917 3.24653 1.61111 3.375 1.5 3.52083C1.38889 3.66667 1.33333 3.82639 1.33333 4C1.33333 4.10417 1.35417 4.20139 1.39583 4.29167C1.4375 4.38194 1.49306 4.47222 1.5625 4.5625C1.63194 4.65278 1.70486 4.73264 1.78125 4.80208C1.85764 4.87153 1.9375 4.9375 2.02083 5C2.3125 5.22222 2.64583 5.41667 3.02083 5.58333C3.39583 5.75 3.79861 5.89236 4.22917 6.01042C4.65972 6.12847 5.09722 6.23264 5.54167 6.32292C5.98611 6.41319 6.43403 6.47917 6.88542 6.52083C7.33681 6.5625 7.76736 6.60069 8.17708 6.63542C8.58681 6.67014 8.97222 6.68056 9.33333 6.66667H9.5625C9.63889 6.66667 9.71528 6.66319 9.79167 6.65625L9.80208 6.66667H16.3854C15.8715 6.90972 15.3229 7.11458 14.7396 7.28125C14.1562 7.44792 13.5556 7.58681 12.9375 7.69792C12.3194 7.80903 11.7049 7.88542 11.0938 7.92708C10.4826 7.96875 9.89583 7.99306 9.33333 8C8.75 8 8.13194 7.97569 7.47917 7.92708C6.82639 7.87847 6.17361 7.79167 5.52083 7.66667C4.86806 7.54167 4.22917 7.38542 3.60417 7.19792C2.97917 7.01042 2.40972 6.77083 1.89583 6.47917L4.60417 18.5C5.29861 18.9861 6.05208 19.3507 6.86458 19.5938C7.67708 19.8368 8.50694 19.9618 9.35417 19.9688C10.1944 19.9688 11.0174 19.8472 11.8229 19.6042C12.6285 19.3611 13.3819 18.9931 14.0833 18.5L16.7292 6.66667ZM20 0V5.33333H14.6667V4H17.7083C17.1806 3.58333 16.6007 3.26736 15.9688 3.05208C15.3368 2.83681 14.684 2.72917 14.0104 2.72917C13.2188 2.72917 12.4618 2.87847 11.7396 3.17708C11.0174 3.47569 10.3715 3.90625 9.80208 4.46875L8.86458 3.53125C9.55208 2.84375 10.3368 2.31597 11.2188 1.94792C12.1007 1.57986 13.0312 1.39583 14.0104 1.39583C14.8576 1.39583 15.6806 1.53819 16.4792 1.82292C17.2778 2.10764 18.0069 2.52083 18.6667 3.0625V0H20Z"
                fill="#C5C5C5"
              />
            </svg>