<svg width="20" height="16" viewBox="0 0 20 16" fill="none" xmlns="http://www.w3.org/2000/svg">
              <path
                d="M13 9C13.55 9 14.021 8.804 14.413 8.412C14.805 8.02 15.0007 7.54934 15 7C15 6.45 14.804 5.979 14.412 5.587C14.02 5.195 13.5493 4.99934 13 5C12.45 5 11.979 5.196 11.587 5.588C11.195 5.98 10.9993 6.45067 11 7C11 7.55 11.196 8.021 11.588 8.413C11.98 8.805 12.4507 9.00067 13 9ZM9 13H17V12.45C17 11.7 16.6333 11.104 15.9 10.662C15.1667 10.22 14.2 9.99934 13 10C11.8 10 10.8333 10.221 10.1 10.663C9.36667 11.105 9 11.7007 9 12.45V13ZM2 16C1.45 16 0.979002 15.804 0.587002 15.412C0.195002 15.02 -0.000664969 14.5493 1.69779e-06 14V2C1.69779e-06 1.45 0.196002 0.979002 0.588002 0.587002C0.980002 0.195002 1.45067 -0.000664969 2 1.69779e-06H8L10 2H18C18.55 2 19.021 2.196 19.413 2.588C19.805 2.98 20.0007 3.45067 20 4V14C20 14.55 19.804 15.021 19.412 15.413C19.02 15.805 18.5493 16.0007 18 16H2ZM2 2V14H18V4H9.175L7.175 2H2Z"
                fill="#C5C5C5"
              />
            </svg>