<svg width="20" height="20" viewBox="0 0 20 20" fill="none" xmlns="http://www.w3.org/2000/svg">
<path fill-rule="evenodd" clip-rule="evenodd" d="M2.4 0C1.07452 0 0 1.07452 0 2.4V17.6C0 18.9255 1.07452 20 2.4 20H17.6C18.9255 20 20 18.9255 20 17.6V2.4C20 1.07452 18.9255 0 17.6 0H2.4ZM14.0971 5.00762C14.3 4.97623 14.5071 5.04318 14.6557 5.18336C14.8042 5.32563 14.8795 5.52648 14.8649 5.72943L14.254 12.1881L14.2527 12.2055C14.2469 12.2852 14.2412 12.3632 14.2373 12.4412C14.1849 13.32 13.4569 14.0167 12.5657 14.0167C11.6285 14.0167 10.8732 13.2488 10.892 12.3073C10.9109 11.4035 11.6577 10.6712 12.5615 10.6691C12.7352 10.6691 12.9004 10.6942 13.0573 10.7424L13.3502 7.55593L9.02174 8.19196L8.56149 13.1756C8.55312 13.2572 8.54894 13.3367 8.54475 13.4183C8.49663 14.2991 7.7665 15 6.87319 15C5.92549 15 5.1598 14.2112 5.20164 13.253C5.23929 12.3868 5.94432 11.6859 6.81043 11.6546C6.99872 11.6483 7.18073 11.6734 7.35228 11.7236L7.83763 6.44496C7.86483 6.13741 8.10123 5.88844 8.40668 5.8445L14.0971 5.00762Z" fill="#00BECA"/>
</svg>
