<svg width="20" height="20" viewBox="0 0 20 20" fill="none" xmlns="http://www.w3.org/2000/svg">
<path fill-rule="evenodd" clip-rule="evenodd" d="M2.4 0C1.07452 0 0 1.07452 0 2.4V17.6C0 18.9255 1.07452 20 2.4 20H17.6C18.9255 20 20 18.9255 20 17.6V2.4C20 1.07452 18.9255 0 17.6 0H2.4ZM7.34253 12.0511C7.73202 12.5708 8.12243 13.0916 8.43838 13.0916C9.03214 13.0916 9.68861 12.1148 10.3596 11.1165C11.2734 9.75667 12.2142 8.35686 13.06 9.33088C13.5918 9.94364 14.1399 11.2847 14.6227 12.466C14.7909 12.8774 14.9511 13.2695 15.1 13.6047V14.08C15.1 14.6441 14.6441 15.1 14.08 15.1H5.92C5.64948 15.1 5.39004 14.9925 5.19875 14.8012C5.00746 14.61 4.9 14.3505 4.9 14.08V13.7444C5.09327 13.3111 5.29016 12.8234 5.46849 12.3817C5.64404 11.9469 5.8016 11.5566 5.92 11.3066C6.25485 10.6 6.79778 11.3244 7.34253 12.0511ZM7.96 6.43C7.96 7.27558 7.27558 7.96 6.43 7.96C5.58442 7.96 4.9 7.27558 4.9 6.43C4.9 5.58442 5.58442 4.9 6.43 4.9C7.27558 4.9 7.96 5.58442 7.96 6.43Z" fill="#FF3093"/>
</svg>
