<svg width="20" height="20" viewBox="0 0 20 20" fill="none" xmlns="http://www.w3.org/2000/svg">
<path fill-rule="evenodd" clip-rule="evenodd" d="M2.4 0C1.07451 0 0 1.07452 0 2.4V17.6C0 18.9255 1.07451 20 2.4 20H17.6C18.9255 20 20 18.9255 20 17.6V2.4C20 1.07452 18.9255 0 17.6 0H2.4ZM12.97 6.233C12.8673 6.211 12.7537 6.2 12.629 6.2H7.404C7.28667 6.2 7.173 6.211 7.063 6.233C6.953 6.255 6.865 6.31733 6.799 6.42C6.733 6.51533 6.7 6.68033 6.7 6.915C6.7 7.14967 6.733 7.31833 6.799 7.421C6.865 7.51633 6.953 7.57867 7.063 7.608C7.173 7.63 7.28667 7.641 7.404 7.641H9.197V13.075C9.197 13.2143 9.20801 13.35 9.23001 13.482C9.252 13.6067 9.32168 13.7093 9.43899 13.79C9.55632 13.8633 9.747 13.9 10.011 13.9C10.2823 13.9 10.473 13.8633 10.583 13.79C10.7003 13.7093 10.77 13.6067 10.792 13.482C10.8213 13.3573 10.836 13.2253 10.836 13.086V7.641H12.607C12.7317 7.641 12.849 7.63 12.959 7.608C13.069 7.586 13.157 7.52367 13.223 7.421C13.2963 7.31833 13.333 7.15333 13.333 6.926C13.333 6.684 13.2963 6.51533 13.223 6.42C13.157 6.31733 13.0727 6.255 12.97 6.233Z" fill="#6F8BB5"/>
</svg>
