<svg width="20" height="20" viewBox="0 0 20 20" fill="none" xmlns="http://www.w3.org/2000/svg">
<path fill-rule="evenodd" clip-rule="evenodd" d="M2.4 0C1.07451 0 0 1.07452 0 2.4V17.6C0 18.9255 1.07451 20 2.4 20H17.6C18.9255 20 20 18.9255 20 17.6V2.4C20 1.07452 18.9255 0 17.6 0H2.4ZM9.48237 11.38C9.59238 11.446 9.77205 11.479 10.0214 11.479C10.2707 11.479 10.4504 11.4497 10.5604 11.391C10.6704 11.3323 10.74 11.2517 10.7694 11.149C10.7987 11.0463 10.8134 10.9363 10.8134 10.819V10.499C10.8812 10.4774 10.9618 10.4484 11.0554 10.412C11.1874 10.3533 11.3304 10.2763 11.4844 10.181C11.6457 10.0783 11.796 9.95 11.9354 9.796C12.0747 9.63467 12.1884 9.44033 12.2764 9.213C12.3644 8.98567 12.4084 8.72167 12.4084 8.421C12.4084 7.97367 12.3021 7.57767 12.0894 7.233C11.884 6.88834 11.598 6.61334 11.2314 6.408C10.8647 6.20267 10.443 6.1 9.96638 6.1C9.62905 6.1 9.33569 6.144 9.08638 6.232C8.83704 6.32 8.62437 6.43367 8.44836 6.573C8.27236 6.705 8.12937 6.84434 8.01939 6.991C7.9167 7.13033 7.83604 7.26233 7.77737 7.387C7.7187 7.50433 7.68203 7.59233 7.66738 7.651C7.61604 7.827 7.59404 7.97 7.60137 8.08C7.60872 8.19 7.66003 8.28533 7.75537 8.366C7.85071 8.43933 8.00105 8.51633 8.20637 8.597C8.39705 8.67033 8.55105 8.69967 8.66838 8.685C8.78569 8.663 8.88105 8.60067 8.95437 8.498C9.03503 8.39533 9.10471 8.256 9.16338 8.08C9.20005 7.99933 9.25137 7.926 9.31738 7.86C9.38337 7.794 9.47139 7.739 9.58137 7.695C9.69138 7.651 9.8197 7.629 9.96638 7.629C10.2817 7.629 10.5164 7.69867 10.6704 7.838C10.8244 7.97 10.9014 8.17533 10.9014 8.454C10.9014 8.64467 10.861 8.795 10.7804 8.905C10.6997 9.015 10.597 9.10667 10.4724 9.18C10.3477 9.246 10.2157 9.30833 10.0764 9.367C9.93704 9.42567 9.80505 9.49533 9.68037 9.576C9.55571 9.64933 9.45305 9.74833 9.37236 9.873C9.2917 9.99033 9.25137 10.1517 9.25137 10.357V10.753C9.25137 10.8777 9.26238 10.995 9.28438 11.105C9.3137 11.215 9.37971 11.3067 9.48237 11.38ZM9.28438 13.778C9.40171 13.9173 9.64004 13.987 9.99937 13.987C10.3 13.987 10.5127 13.943 10.6374 13.855C10.7694 13.7597 10.8464 13.646 10.8684 13.514C10.8977 13.3747 10.9124 13.2353 10.9124 13.096C10.9124 12.766 10.8537 12.535 10.7364 12.403C10.6264 12.2637 10.3844 12.194 10.0104 12.194C9.70972 12.194 9.49705 12.238 9.37236 12.326C9.24771 12.414 9.1707 12.5277 9.14138 12.667C9.11938 12.8063 9.10837 12.9457 9.10837 13.085C9.10837 13.4077 9.16704 13.6387 9.28438 13.778Z" fill="#BCC0D1"/>
</svg>
