<svg width="20" height="20" viewBox="0 0 20 20" fill="none" xmlns="http://www.w3.org/2000/svg">
<path fill-rule="evenodd" clip-rule="evenodd" d="M2.4 0C1.07452 0 0 1.07452 0 2.4V17.6C0 18.9255 1.07452 20 2.4 20H17.6C18.9255 20 20 18.9255 20 17.6V2.4C20 1.07452 18.9255 0 17.6 0H2.4ZM5.99622 14.9005C6.19471 15 6.29396 15 6.49245 15C6.69094 15 6.79018 15 6.98867 14.9005L13.9358 10.9204C14.2336 10.7214 14.432 10.4229 14.432 10.0249C14.432 9.62687 14.2336 9.32836 13.9358 9.12935L6.98867 5.14925C6.69094 4.95025 6.29396 4.95025 5.99622 5.14925C5.69849 5.34826 5.5 5.64677 5.5 6.04478V14.005C5.5 14.403 5.69849 14.7015 5.99622 14.9005ZM11.4547 10.0249L7.4849 12.3134V7.73632L11.4547 10.0249Z" fill="#844FDA"/>
</svg>
