<svg width="17" height="14" viewBox="0 0 17 14" fill="none" xmlns="http://www.w3.org/2000/svg">
<path d="M9.88214 7.82354H9.05863V7.00003C9.05863 6.78162 8.97187 6.57215 8.81743 6.41771C8.66299 6.26328 8.45353 6.17651 8.23512 6.17651C8.01671 6.17651 7.80725 6.26328 7.65281 6.41771C7.49837 6.57215 7.41161 6.78162 7.41161 7.00003V7.82354H6.5881C6.36969 7.82354 6.16023 7.9103 6.00579 8.06474C5.85135 8.21918 5.76459 8.42864 5.76459 8.64705C5.76459 8.86546 5.85135 9.07492 6.00579 9.22936C6.16023 9.3838 6.36969 9.47056 6.5881 9.47056H7.41161V10.2941C7.41161 10.5125 7.49837 10.7219 7.65281 10.8764C7.80725 11.0308 8.01671 11.1176 8.23512 11.1176C8.45353 11.1176 8.66299 11.0308 8.81743 10.8764C8.97187 10.7219 9.05863 10.5125 9.05863 10.2941V9.47056H9.88214C10.1006 9.47056 10.31 9.3838 10.4645 9.22936C10.6189 9.07492 10.7057 8.86546 10.7057 8.64705C10.7057 8.42864 10.6189 8.21918 10.4645 8.06474C10.31 7.9103 10.1006 7.82354 9.88214 7.82354Z" fill="white"/>
<path d="M14.4114 2.92362H8.64687L6.48103 0.304853C6.4044 0.210385 6.3078 0.134067 6.19816 0.0813828C6.08852 0.0286989 5.96857 0.000957859 5.84693 0.000153466H2.05878C1.5207 -0.00645226 1.00194 0.200427 0.616067 0.575491C0.230198 0.950556 0.00867387 1.46324 0 2.00129V11.9987C0.00867387 12.5368 0.230198 13.0494 0.616067 13.4245C1.00194 13.7996 1.5207 14.0065 2.05878 13.9998H14.4114C14.9495 14.0065 15.4683 13.7996 15.8542 13.4245C16.24 13.0494 16.4616 12.5368 16.4702 11.9987V4.92475C16.4616 4.38671 16.24 3.87402 15.8542 3.49896C15.4683 3.12389 14.9495 2.91701 14.4114 2.92362ZM14.8232 11.9822C14.8201 12.0328 14.8069 12.0822 14.7844 12.1275C14.7619 12.1729 14.7305 12.2132 14.6921 12.2462C14.6537 12.2793 14.6091 12.3042 14.5609 12.3197C14.5127 12.3352 14.4619 12.3409 14.4114 12.3364H2.05878C2.00835 12.3409 1.95753 12.3352 1.90933 12.3197C1.86112 12.3042 1.81651 12.2793 1.77812 12.2462C1.73974 12.2132 1.70836 12.1729 1.68584 12.1275C1.66332 12.0822 1.65012 12.0328 1.64702 11.9822V2.00129C1.65012 1.95075 1.66332 1.90135 1.68584 1.85601C1.70836 1.81066 1.73974 1.77029 1.77812 1.73728C1.81651 1.70427 1.86112 1.67929 1.90933 1.66381C1.95753 1.64834 2.00835 1.64268 2.05878 1.64718H5.45988L7.60101 4.26594C7.67764 4.36041 7.77425 4.43673 7.88389 4.48941C7.99353 4.5421 8.11348 4.56984 8.23511 4.57064H14.4114C14.4619 4.56614 14.5127 4.5718 14.5609 4.58728C14.6091 4.60275 14.6537 4.62774 14.6921 4.66075C14.7305 4.69376 14.7619 4.73413 14.7844 4.77948C14.8069 4.82482 14.8201 4.87422 14.8232 4.92475V11.9822Z" fill="white"/>
</svg>
