<svg width="28" height="28" viewBox="0 0 28 28" fill="none" xmlns="http://www.w3.org/2000/svg">
<rect width="28" height="28" rx="4" fill="#F8F8F8"/>
<path fill-rule="evenodd" clip-rule="evenodd" d="M8.68 7C7.75216 7 7 7.75216 7 8.68V19.32C7 20.2478 7.75216 21 8.68 21H19.32C20.2478 21 21 20.2478 21 19.32V8.68C21 7.75216 20.2478 7 19.32 7H8.68ZM16.868 10.5053C17.01 10.4834 17.155 10.5302 17.259 10.6284C17.3629 10.7279 17.4157 10.8685 17.4054 11.0106L16.9778 15.5317L16.9769 15.5438C16.9728 15.5996 16.9688 15.6542 16.9661 15.7089C16.9295 16.324 16.4198 16.8117 15.796 16.8117C15.1399 16.8117 14.6113 16.2742 14.6244 15.6151C14.6376 14.9824 15.1604 14.4699 15.7931 14.4684C15.9146 14.4684 16.0303 14.486 16.1401 14.5197L16.3452 12.2891L13.3152 12.7344L12.993 16.2229C12.9872 16.28 12.9843 16.3357 12.9813 16.3928C12.9476 17.0094 12.4366 17.5 11.8112 17.5C11.1478 17.5 10.6119 16.9479 10.6411 16.2771C10.6675 15.6708 11.161 15.1802 11.7673 15.1582C11.8991 15.1538 12.0265 15.1714 12.1466 15.2065L12.4863 11.5115C12.5054 11.2962 12.6709 11.1219 12.8847 11.0911L16.868 10.5053Z" fill="#00BECA"/>
</svg>
