<svg width="15" height="16" viewBox="0 0 15 16" fill="none" xmlns="http://www.w3.org/2000/svg">
<path d="M5.10938 12.4141C4.94271 12.4141 4.81771 12.3385 4.73438 12.1875C4.70312 12.1302 4.64844 12.0312 4.57031 11.8906C4.49219 11.75 4.41146 11.6042 4.32812 11.4531C4.24479 11.3021 4.16927 11.1589 4.10156 11.0234C4.03385 10.888 4 10.7969 4 10.75C4 10.6667 4.01823 10.5781 4.05469 10.4844C4.09115 10.3906 4.13802 10.2969 4.19531 10.2031C4.2526 10.1094 4.30729 10.0208 4.35938 9.9375C4.41146 9.85417 4.45833 9.78125 4.5 9.71875L4 9.32031H5.53906L5.90625 10.8359L5.30469 10.3594L4.875 11.2266H6.30469V12.4141H5.10938ZM6.91406 7.38281L6.25781 8.67188L5.26562 8.17188L5.73438 7.24219C5.80729 7.08594 5.93229 7.00781 6.10938 7.00781L7.83594 7C8.0026 7 8.1276 7.07812 8.21094 7.23438L8.63281 8.02344L9.08594 7.67969L8.85156 9.29688L7.14844 9.14062L7.63281 8.78125L6.91406 7.38281ZM7.86719 13L6.89844 11.7031L7.86719 10.5156V11.3203H9.14062L8.61719 10.3594L9.57031 9.79688C9.59115 9.84375 9.625 9.90885 9.67188 9.99219C9.71875 10.0755 9.76823 10.1667 9.82031 10.2656C9.8724 10.3646 9.91406 10.4557 9.94531 10.5391C9.97656 10.6224 9.99479 10.6927 10 10.75C10 10.8125 9.98438 10.875 9.95312 10.9375L9.28906 12.25C9.2526 12.3229 9.20052 12.3776 9.13281 12.4141C9.0651 12.4505 8.99219 12.4714 8.91406 12.4766H7.86719V13ZM12.5469 5H13.5781L11.4609 14.4609C10.7839 14.9661 10.0859 15.349 9.36719 15.6094C8.64844 15.8698 7.86198 16 7.00781 16C6.16406 16 5.38021 15.8698 4.65625 15.6094C3.93229 15.349 3.23438 14.9661 2.5625 14.4609L0.0703125 3.44531L0.0234375 3.22656C0.0078125 3.15365 0 3.07812 0 3C0 2.69792 0.0755208 2.42448 0.226562 2.17969C0.377604 1.9349 0.580729 1.71354 0.835938 1.51562C1.09115 1.31771 1.375 1.14844 1.6875 1.00781C2 0.867188 2.32031 0.739583 2.64844 0.625C2.97656 0.510417 3.29167 0.424479 3.59375 0.367188C3.89583 0.309896 4.16406 0.257812 4.39844 0.210938C5.25781 0.0703125 6.125 0 7 0C7.26562 0 7.52865 0.00520833 7.78906 0.015625C8.04948 0.0260417 8.3151 0.046875 8.58594 0.078125C8.24219 0.182292 7.91146 0.309896 7.59375 0.460938C7.27604 0.611979 6.96875 0.794271 6.67188 1.00781C6.42188 1.01302 6.14583 1.02604 5.84375 1.04688C5.54167 1.06771 5.22917 1.09896 4.90625 1.14062C4.58333 1.18229 4.25521 1.23698 3.92188 1.30469C3.58854 1.3724 3.26823 1.45573 2.96094 1.55469C2.65365 1.65365 2.36458 1.76823 2.09375 1.89844C1.82292 2.02865 1.58854 2.17969 1.39062 2.35156C1.29688 2.4349 1.20833 2.53125 1.125 2.64062C1.04167 2.75 1 2.86979 1 3C1 3.07812 1.01562 3.15104 1.04688 3.21875C1.07812 3.28646 1.11979 3.35417 1.17188 3.42188C1.22396 3.48958 1.27865 3.54948 1.33594 3.60156C1.39323 3.65365 1.45312 3.70312 1.51562 3.75C1.73438 3.91667 1.98438 4.0625 2.26562 4.1875C2.54688 4.3125 2.84896 4.41927 3.17188 4.50781C3.49479 4.59635 3.82292 4.67448 4.15625 4.74219C4.48958 4.8099 4.82552 4.85938 5.16406 4.89062C5.5026 4.92188 5.82552 4.95052 6.13281 4.97656C6.4401 5.0026 6.72917 5.01042 7 5H7.17188C7.22917 5 7.28646 4.9974 7.34375 4.99219L7.35156 5H12.2891C11.9036 5.18229 11.4922 5.33594 11.0547 5.46094C10.6172 5.58594 10.1667 5.6901 9.70312 5.77344C9.23958 5.85677 8.77865 5.91406 8.32031 5.94531C7.86198 5.97656 7.42188 5.99479 7 6C6.5625 6 6.09896 5.98177 5.60938 5.94531C5.11979 5.90885 4.63021 5.84375 4.14062 5.75C3.65104 5.65625 3.17188 5.53906 2.70312 5.39844C2.23438 5.25781 1.80729 5.07812 1.42188 4.85938L3.45312 13.875C3.97396 14.2396 4.53906 14.513 5.14844 14.6953C5.75781 14.8776 6.38021 14.9714 7.01562 14.9766C7.64583 14.9766 8.26302 14.8854 8.86719 14.7031C9.47135 14.5208 10.0365 14.2448 10.5625 13.875L12.5469 5ZM15 0V4H11V3H13.2812C12.8854 2.6875 12.4505 2.45052 11.9766 2.28906C11.5026 2.1276 11.013 2.04688 10.5078 2.04688C9.91406 2.04688 9.34635 2.15885 8.80469 2.38281C8.26302 2.60677 7.77865 2.92969 7.35156 3.35156L6.64844 2.64844C7.16406 2.13281 7.7526 1.73698 8.41406 1.46094C9.07552 1.1849 9.77344 1.04688 10.5078 1.04688C11.1432 1.04688 11.7604 1.15365 12.3594 1.36719C12.9583 1.58073 13.5052 1.89062 14 2.29688V0H15Z" fill="white"/>
</svg>
