<svg width="36" height="32" viewBox="0 0 36 32" fill="none" xmlns="http://www.w3.org/2000/svg">
<g clip-path="url(#clip0_11_1816)">
<path d="M2.71635 27.3934L4.30091 30.1183C4.63018 30.692 5.10344 31.1428 5.65909 31.4707C7.25067 29.4593 8.35832 27.9157 8.9826 26.8402C9.616 25.7487 10.3945 24.0412 11.3182 21.7181C8.82891 21.3918 6.9426 21.2287 5.65923 21.2287C4.42737 21.2287 2.54105 21.3918 0 21.7181C0 22.3532 0.164632 22.9883 0.493895 23.562L2.71635 27.3934Z" fill="#0066DA"/>
<path d="M30.271 31.4707C30.8268 31.1428 31.3001 30.692 31.6292 30.1184L32.2877 28.9916L35.4364 23.562C35.7595 23.0007 35.9297 22.3651 35.9301 21.7181C33.3743 21.3918 31.4915 21.2287 30.2814 21.2287C28.9809 21.2287 27.098 21.3918 24.6326 21.7181C25.5453 24.0539 26.3136 25.7614 26.9374 26.8402C27.5666 27.9286 28.6778 29.472 30.271 31.4707Z" fill="#EA4335"/>
<path d="M17.9651 10.2443C19.8065 8.03018 21.0755 6.32272 21.7721 5.12224C22.3331 4.15553 22.9505 2.61198 23.6241 0.491738C23.0685 0.163913 22.4306 0 21.7721 0H14.158C13.4995 0 12.8618 0.184454 12.306 0.491738C13.163 2.92346 13.8902 4.65411 14.4876 5.68356C15.1478 6.82131 16.307 8.34152 17.9651 10.2443Z" fill="#00832D"/>
<path d="M24.6119 21.7181H11.3182L5.65923 31.4707C6.21473 31.7985 6.85263 31.9624 7.51116 31.9624H28.4189C29.0775 31.9624 29.7155 31.778 30.271 31.4705L24.6121 21.7181H24.6119Z" fill="#2684FC"/>
<path d="M17.9651 10.2443L12.3061 0.491882C11.7503 0.819708 11.2771 1.27036 10.9478 1.84413L0.493895 19.8741C0.170684 20.4354 0.000427014 21.0711 0 21.7181H11.3182L17.9651 10.2443Z" fill="#00AC47"/>
<path d="M30.2094 10.8591L24.9823 1.844C24.6532 1.27024 24.1798 0.819586 23.6241 0.49176L17.9652 10.2444L24.6119 21.7181H35.9096C35.9096 21.0828 35.745 20.4479 35.4157 19.8741L30.2094 10.8591Z" fill="#FFBA00"/>
</g>
<defs>
<clipPath id="clip0_11_1816">
<rect width="35.9298" height="32" fill="white"/>
</clipPath>
</defs>
</svg>
