<svg width="32" height="32" viewBox="0 0 32 32" fill="none" xmlns="http://www.w3.org/2000/svg">
<path d="M16 0C7.161 0 0 7.161 0 16C0 24.839 7.161 32 16 32C24.839 32 32 24.839 32 16C32 7.161 24.839 0 16 0ZM24.307 21.656C24.307 21.7886 24.2543 21.9158 24.1606 22.0096C24.0668 22.1033 23.9396 22.156 23.807 22.156H21.718C21.5863 22.1547 21.4604 22.1014 21.3677 22.0078C21.275 21.9142 21.223 21.7877 21.223 21.656V15.218C21.223 15.166 21.16 15.14 21.119 15.176L16.692 19.603C16.5066 19.7857 16.2568 19.8881 15.9965 19.8881C15.7362 19.8881 15.4864 19.7857 15.301 19.603L10.874 15.176C10.838 15.14 10.765 15.166 10.765 15.218V21.656C10.765 21.932 10.546 22.156 10.27 22.156H8.181C8.1155 22.1563 8.0506 22.1435 7.99009 22.1184C7.92958 22.0933 7.87468 22.0564 7.8286 22.0099C7.78251 21.9633 7.74617 21.908 7.72168 21.8473C7.6972 21.7865 7.68507 21.7215 7.686 21.656V10.343C7.686 10.067 7.905 9.848 8.181 9.848H9.613C9.879 9.848 10.129 9.952 10.316 10.14L15.821 15.645C15.915 15.744 16.071 15.744 16.17 15.645L21.675 10.14C21.7661 10.0473 21.8747 9.97375 21.9946 9.92361C22.1144 9.87347 22.2431 9.84776 22.373 9.848H23.805C24.081 9.848 24.305 10.067 24.305 10.343L24.307 21.656Z" fill="#D41B01"/>
</svg>
