<svg width="50" height="32" viewBox="0 0 50 32" fill="none" xmlns="http://www.w3.org/2000/svg">
<g clip-path="url(#clip0_11_1874)">
<path d="M29.9947 21.4656L40.2428 11.6651C38.1142 3.36449 29.6596 -1.63857 21.359 0.490305C17.6211 1.44892 14.3746 3.76596 12.2531 6.98921C12.4116 6.98533 29.9947 21.4656 29.9947 21.4656Z" fill="#0364B8"/>
<path d="M18.932 8.83432L18.9316 8.83607C16.9733 7.62321 14.715 6.98215 12.4115 6.9853C12.3584 6.9853 12.306 6.9886 12.2529 6.98918C5.4016 7.07413 -0.0837825 12.6972 0.000969002 19.5487C0.031747 22.0339 0.808275 24.4526 2.22991 26.4913L17.5831 24.5684L29.3541 15.077L18.932 8.83432Z" fill="#0078D4"/>
<path d="M40.2428 11.6651C40.0162 11.649 39.7892 11.6405 39.5621 11.6397C38.1873 11.6383 36.8269 11.9191 35.565 12.4647L35.5646 12.4637L29.3542 15.077L36.2007 23.5342L48.4402 26.5094C51.0817 21.606 49.2478 15.4897 44.3442 12.8483C43.0771 12.1658 41.6787 11.7622 40.2428 11.6651Z" fill="#1490DF"/>
<path d="M2.22992 26.4913C3.37204 28.1335 4.89464 29.4747 6.66767 30.4007C8.4407 31.3266 10.4115 31.8097 12.4117 31.8086H39.5621C41.3825 31.8091 43.169 31.3167 44.7321 30.3838C46.2953 29.4508 47.5766 28.1121 48.4402 26.5096L29.3541 15.0768L2.22992 26.4913Z" fill="#28A8EA"/>
</g>
<defs>
<clipPath id="clip0_11_1874">
<rect width="49.6485" height="32" fill="white"/>
</clipPath>
</defs>
</svg>
